# xmcd
#
# Track frame offsets: 
#        150
#        27809
#        43455
#        59191
#        74708
#        107121
#        127113
#        145089
#        170604
#        198067
#        209143
#        212423
#        233241
#
# Disc length: 3441 seconds
#
# Revision: 0
# Processed by: cddbd v1.5.2PL0 Copyright (c) Steve Scherf et al.
# Submitted via: ExactAudioCopy v0.95b3
#
DISCID=d50d6f0d
DTITLE=Jimi Hendrix  - Studio Sessions Vol.1 (Voodoo Chile Records  Bo
DTITLE=x-Set) - Disc 5
DYEAR=1900
DGENRE=
TTITLE0=Calling All Devil's Children
TTITLE1=Look Over Yonder (Mr Bad Luck)
TTITLE2=Look Over Yonder (Mr Bad Luck)
TTITLE3=New Rising Sun
TTITLE4=Peace In Mississippi
TTITLE5=Peace In Mississippi (Take 15)
TTITLE6=Jam (Js28)
TTITLE7=Jam (Js29)
TTITLE8=Jam (Js30)
TTITLE9=Everything's Gonna Be Alright
TTITLE10=Lover Man (Take 1)
TTITLE11=Lover Man
TTITLE12=Lover Man
EXTD=
EXTT0=
EXTT1=
EXTT2=
EXTT3=
EXTT4=
EXTT5=
EXTT6=
EXTT7=
EXTT8=
EXTT9=
EXTT10=
EXTT11=
EXTT12=
PLAYORDER=
